<svg width="317" height="194" viewBox="0 0 317 194" fill="none" xmlns="http://www.w3.org/2000/svg">
<path d="M143.757 0.424276C150.49 -0.006034 157.365 0.247206 164.112 0.299377C170.993 0.362591 177.871 0.561116 184.745 0.894955C191.62 1.22854 198.487 1.69719 205.346 2.30089C212.206 2.90434 219.053 3.64246 225.888 4.51527C232.723 5.38808 239.542 6.39493 246.344 7.53582C252.119 8.4424 257.871 9.4985 263.6 10.7041C266.523 11.297 269.495 11.8073 272.371 12.631C272.189 17.5434 271.601 22.4965 271.193 27.3971C270.794 32.1983 270.57 37.1138 269.911 41.8746C271.098 41.0182 272.463 40.3613 273.795 39.8251C282.008 36.5163 294.014 38.6697 301.807 42.6949C307.983 45.8845 313.04 51.2169 315.339 58.3749C315.683 59.4488 315.967 60.5413 316.192 61.6525C316.417 62.7637 316.581 63.8857 316.684 65.0184C317.131 69.9198 316.801 75.0702 316.825 80.0001C316.843 83.8462 317.243 88.0751 316.77 91.8748C316.598 93.2552 316.186 94.318 315.647 95.5591C315.791 97.9182 316.404 100.26 316.607 102.632C316.986 107.072 316.831 111.612 316.832 116.072C316.833 119.136 317.017 122.397 316.678 125.44C316.536 126.722 316.318 127.988 316.024 129.238C315.731 130.489 315.364 131.713 314.924 132.91C312.844 138.482 309 142.565 303.928 144.859C294.085 149.311 282.473 145.919 273.093 141.634C272.34 143.517 270.986 145.64 270.718 147.677C270.353 150.451 271.701 159.219 272.082 162.474C272.484 165.8 272.795 169.136 273.013 172.483C269.633 173.757 266.016 174.493 262.529 175.349C252.671 177.767 242.371 180.083 232.276 180.672C231.636 182.008 230.882 183.291 229.95 184.407C228.448 186.206 226.632 187.365 224.519 188.086C220.243 189.546 215.251 189.759 210.788 190.257C198.988 191.574 187.254 192.347 175.407 192.83C165.315 193.228 155.221 193.274 145.125 192.966C135.03 192.659 124.954 191.999 114.897 190.988C108.945 190.381 102.672 189.94 96.8109 188.67C91.3268 187.481 89.01 185.582 85.9431 180.536C72.7136 180.12 57.5057 176.248 44.7167 172.492C45.0822 167.199 45.7198 161.894 46.2734 156.619C46.5296 154.178 47.3838 149.535 47.0103 147.293C46.692 145.381 45.3654 143.344 44.6535 141.531C35.7877 145.783 23.3271 149.079 13.9365 145.688C8.87288 143.859 4.8457 139.927 2.48077 134.689C2.20294 134.066 1.9505 133.431 1.72345 132.784C1.49638 132.137 1.29558 131.48 1.12104 130.814C0.946472 130.148 0.798841 129.474 0.678145 128.794C0.557426 128.113 0.464104 127.428 0.39818 126.739C-0.344322 119.246 0.186105 109.667 0.150389 101.917L0.207382 78.6654C0.223938 74.4727 0.0210976 70.1045 0.332614 65.929C0.516955 63.4579 1.0621 61.0067 1.80436 58.6689C3.9201 52.0052 8.92651 46.3708 14.6762 43.3319C21.4392 39.7577 31.4893 37.538 39.015 38.2684C41.5477 38.5144 43.8667 39.1579 46.2578 40.0867C46.17 36.9633 45.7184 33.7836 45.43 30.6702L43.7823 12.623C50.9279 10.5766 58.4314 9.39872 65.7197 8.10322C78.6373 5.90673 91.606 4.16798 104.626 2.88695C117.645 1.60567 130.689 0.784773 143.757 0.424276Z" fill="#D4D4D4"/>
<path d="M146.888 6.3252C158.791 5.79436 170.917 6.15612 182.817 6.72809C189.842 7.02359 196.859 7.46393 203.869 8.0491C210.879 8.63453 217.876 9.36429 224.861 10.2384C231.845 11.1127 238.813 12.1308 245.762 13.2928C252.712 14.4548 259.639 15.7598 266.545 17.2079C266.125 26.589 264.914 35.9096 264.692 45.3075C266.422 46.4693 267.308 47.2888 268.229 49.3067C268.272 49.2904 268.315 49.2744 268.358 49.2572C268.429 49.2287 268.5 49.1978 268.571 49.1693C270.044 48.5828 271.362 47.616 272.732 46.7904C275.993 44.825 279.375 44.14 283.085 44.1369C290.931 44.1304 300.496 46.6072 306.151 52.8943C312.089 59.4975 311.601 67.93 311.598 76.5229L311.583 91.019C310.335 90.7967 309.142 90.4882 307.924 90.1154C308.96 92.8168 310.05 95.5107 310.611 98.3892C311.856 104.778 312.29 122.769 310.661 128.788C309.528 132.974 307.24 136.588 303.669 138.646C296.738 142.642 286.208 140.84 279.114 137.937C276.392 136.823 273.911 135.244 271.115 134.29C269.432 137.515 266.304 142.844 265.428 146.259C264.834 148.577 267.039 164.564 267.404 168.154C261.191 169.301 255.061 171.113 248.828 172.233C245.058 172.917 241.28 173.545 237.494 174.118C234.888 174.485 232.207 174.644 229.631 175.194C228.701 176.839 227.786 178.618 226.571 180.035C225.51 181.274 224.303 182.085 222.821 182.57C218.786 183.891 212.493 184.191 208.204 184.598C197.188 185.72 186.15 186.437 175.089 186.75C172.316 187.012 169.48 186.965 166.695 187.003C161.808 187.084 156.921 187.083 152.034 187.003C141.284 186.854 130.551 186.313 119.834 185.379C112.96 184.82 106.008 184.222 99.1831 183.141C92.6057 182.099 92.1791 180.381 88.4864 174.968C85.2237 174.516 81.9037 174.582 78.6188 174.117C69.2244 172.788 59.739 170.574 50.5501 168.052C50.6952 163.329 51.4813 158.441 52.0089 153.75C52.2644 151.477 52.9176 148.568 52.4987 146.324C52.0794 144.08 48.0437 135.9 46.7276 133.782C45.133 134.462 43.6197 135.41 42.064 136.196C34.8941 139.816 22.439 143.006 14.9647 139.898C11.3055 138.376 8.78625 135.547 7.18744 131.652C6.36309 129.644 5.91624 127.603 5.74565 125.413C5.46575 121.819 5.57026 118.159 5.57373 114.556L5.60004 97.0929L5.59546 77.6589C5.59879 74.1402 5.43871 70.5203 5.69331 67.0172C5.78306 65.8154 5.95191 64.6272 6.19985 63.4525C6.44777 62.2779 6.77214 61.1292 7.17296 60.0066C9.11422 54.5219 12.8916 50.4335 17.7925 48.092C23.701 45.2694 34.1885 43.1548 40.5729 44.2043C43.2431 44.6434 45.6984 45.7515 48.1919 46.8384C49.1687 45.1461 49.9961 44.2793 51.7656 43.6084C51.4883 41.0756 51.3807 38.4964 51.154 35.9534L49.4956 17.1763C51.7639 16.5715 54.1543 16.2433 56.4566 15.8057C61.1722 14.903 65.8959 14.0554 70.6277 13.2631C76.9379 12.2123 83.2624 11.2794 89.6012 10.4642C95.9401 9.649 102.29 8.95213 108.65 8.37355C115.011 7.79498 121.378 7.33484 127.753 6.99313C134.128 6.65168 140.506 6.42904 146.888 6.3252Z" fill="white"/>
<path d="M151.919 123.029C165.183 122.823 178.436 123.148 191.678 124.004C215.941 125.474 240.192 128.439 263.868 134.61C262.101 138.535 259.677 142.15 258.012 146.112C258.718 151.011 259.456 155.903 260.225 160.791C229.389 153.48 197.547 150.49 166.036 150.018C135.634 149.794 104.896 151.416 74.9131 157.237C69.3926 158.309 63.0487 159.239 57.7302 161.026C58.8628 156.095 59.2425 150.94 60.2605 145.964C58.1259 142.157 56.2277 138.223 54.0181 134.455C58.3061 133.051 62.8335 132.22 67.2361 131.359C74.2422 129.989 81.2014 128.824 88.2703 127.915C98.8337 126.508 109.423 125.397 120.038 124.583C130.653 123.768 141.28 123.25 151.919 123.029Z" fill="#B8030D"/>
<path d="M176.936 128.236L181.778 128.281C183.297 134.174 185.423 139.92 187.103 145.768L182.96 145.756C182.628 144.745 182.406 143.622 181.933 142.681C180.097 142.686 178.248 142.586 176.412 142.533C176.147 143.562 175.831 144.578 175.533 145.597C174.142 145.579 172.745 145.48 171.354 145.415C173.502 139.84 175.03 133.921 176.936 128.236Z" fill="white"/>
<path d="M179.371 133.32C180.071 134.831 180.407 136.969 180.85 138.616L180.717 138.805L179.916 138.778L177.699 138.744C178.167 136.953 178.639 135.001 179.371 133.32Z" fill="#C41728"/>
<path d="M150.65 128.18L155.162 128.1C156.048 129.761 156.969 131.399 157.924 133.014C158.895 131.433 159.748 129.739 160.643 128.105C162.22 128.128 163.796 128.175 165.372 128.246C163.665 130.87 162.052 133.574 160.36 136.212C162.294 139.186 164.061 142.305 165.973 145.301C165.395 145.358 164.803 145.36 164.223 145.387L161.053 145.395L157.79 139.55C156.636 141.516 155.452 143.459 154.238 145.379L149.59 145.366C151.004 142.461 153.488 138.87 155.422 136.322C154.56 134.945 150.823 129.538 150.65 128.18Z" fill="white"/>
<path d="M143.098 128.178L143.296 128.364C143.518 129.607 143.425 131.006 143.43 132.274L137.055 132.272L137.114 134.873C138.915 134.677 140.746 134.738 142.554 134.733L142.562 138.539L137.193 138.57L137.228 141.605C138.41 141.605 139.579 141.426 140.756 141.34C141.63 141.277 142.821 141.127 143.509 141.78L143.544 142.693L143.596 145.403C140.138 145.356 136.658 145.641 133.201 145.789L133.205 128.445C136.499 128.222 139.801 128.337 143.098 128.178Z" fill="white"/>
<path d="M197.841 129.3C198.488 129.309 199.132 129.323 199.771 129.44C201.793 129.811 203.034 131.014 204.183 132.782C203.189 133.48 202.169 134.138 201.161 134.812C200.762 134.372 200.334 133.894 199.849 133.567C199.101 133.06 198.265 133.104 197.451 133.35C197.085 133.713 196.997 133.751 196.885 134.269C197.604 135.826 201.866 136.469 203.377 138.084C204.163 138.926 204.664 140.017 204.663 141.237C204.662 142.485 204.151 144.02 203.339 144.906C202.077 146.284 200.271 146.523 198.58 146.55C197.674 146.424 196.761 146.31 195.89 145.992C194.181 145.368 193.274 144.188 192.512 142.456C193.583 141.826 194.648 141.277 195.773 140.775C196.238 141.397 196.703 142.092 197.403 142.403C198.329 142.815 199.352 142.905 200.268 142.457C200.503 142.137 200.613 142.028 200.542 141.582C200.327 140.237 196.043 139.287 194.587 138.015C193.697 137.238 192.927 136.089 192.828 134.811C192.723 133.452 193.357 132.034 194.145 131.024C195.137 129.752 196.396 129.445 197.841 129.3Z" fill="white"/>
<path d="M125.477 128.754L125.785 128.829C126.116 129.97 125.931 131.663 125.927 132.88C124.565 132.917 123.202 132.942 121.84 132.953C121.977 137.359 121.912 141.78 121.914 146.188C120.58 146.185 119.24 146.301 117.908 146.382L117.914 141.931L117.917 133.182C116.46 133.217 115 133.37 113.547 133.484L113.543 129.438C117.514 129.317 121.507 128.969 125.477 128.754Z" fill="white"/>
<path d="M230.395 48.2797C234.839 48.648 239.294 49.3155 243.721 49.8825C247.317 50.3433 251.069 50.6502 254.597 51.5337C255.213 51.685 255.817 51.8772 256.411 52.1102C257.004 52.3433 257.583 52.6153 258.146 52.9263C260.311 54.1437 262.159 56.4411 262.875 58.9975C264.126 63.4609 263.942 81.4125 263.349 86.47C263.142 88.2388 262.796 90.0686 262.022 91.6535C261.131 93.4794 259.896 94.4052 258.144 95.0122C258.663 98.1706 259.553 101.316 260.225 104.447C261.738 111.492 262.903 118.408 265.796 124.965C261.351 124.182 256.878 123.422 252.466 122.452L251.594 118.515C249.984 110.892 248.609 103.213 247.015 95.5861C245.695 95.3576 244.396 95.187 243.062 95.0872C243.12 102.947 242.407 114.377 243.982 121.711C239.509 120.897 234.985 120.476 230.521 119.615C231.711 114.779 231.232 108.958 231.226 103.971L231.2 86.8919L231.14 64.4175C231.12 60.5497 231.215 56.6201 231.017 52.761C230.938 51.2165 230.727 49.782 230.395 48.2797Z" fill="black"/>
<path d="M243.13 61.3121C245.201 61.5139 248.296 61.4777 250.041 62.7668C251.033 63.4998 251.454 65.0135 251.668 66.2344C252.167 69.0889 252.14 78.5565 251.527 81.2929C251.374 81.9734 251.078 82.518 250.728 83.0961C248.66 84.8017 245.497 84.0576 243.072 83.8516C243.457 76.4026 243.072 68.785 243.13 61.3121Z" fill="white"/>
<path d="M155.439 44.7561C160.008 44.5398 164.632 44.704 169.206 44.7219C172.599 57.2237 176.296 69.7141 179.326 82.3226C179.533 76.5862 179.343 70.7412 179.343 64.9944C179.344 59.7759 179.605 54.3517 179.146 49.1628C179.016 47.6963 178.748 46.4203 178.302 45.0315C182.576 45.1941 186.85 45.2938 191.115 45.6427C190.21 50.7222 190.46 55.9107 190.473 61.06L190.501 78.4601L190.505 99.3941C190.508 103.565 190.392 107.835 190.654 111.992C190.755 113.597 191.209 115.138 191.44 116.72C187.192 116.456 182.925 116.351 178.672 116.191C176.795 108.641 174.341 101.231 172.174 93.7761L169.095 83.0629C168.628 81.4163 168.269 79.7282 167.712 78.1155C168.029 81.4456 167.904 84.8504 167.901 88.1954L167.887 103.626C167.884 107.77 167.842 111.792 168.53 115.889C164.189 115.623 159.793 115.758 155.445 115.772C156.017 113.911 156.301 112.078 156.402 110.117C156.579 106.653 156.454 103.126 156.456 99.652L156.46 80.0104L156.456 60.9739C156.454 57.3966 156.576 53.7694 156.381 50.2001C156.277 48.2973 156.079 46.5383 155.439 44.7561Z" fill="black"/>
<path d="M279.583 52.9263C280.084 52.8674 280.586 52.8271 281.09 52.8052C286.551 52.5859 295.719 54.3372 299.763 58.5105C303.665 62.5379 303.675 67.9761 303.708 73.4388C303.707 76.1628 303.741 78.8862 303.812 81.609C299.831 80.8441 295.845 80.1166 291.853 79.4266C291.755 76.1654 292.61 69.6132 290.471 67.0896C289.55 66.0028 288.194 65.5276 286.864 65.5199C285.95 65.515 285.028 65.8627 284.378 66.5828C282.968 68.1445 282.904 70.8055 282.923 72.8763C282.94 74.7168 283.09 76.574 283.825 78.2579C285.667 82.4765 293.956 88.9623 297.311 92.6036C303.755 99.5983 303.925 104.084 303.957 113.518C303.974 118.413 304.474 125.823 301.021 129.509C298.602 132.091 295.792 132.161 292.638 132.073C287.049 131.504 280.022 130.092 275.632 125.94C268.716 119.4 271.304 109.245 270.67 100.464C274.677 101.483 278.793 102.101 282.762 103.269C282.676 106.665 282.384 110.295 282.747 113.664C282.925 115.315 283.462 116.948 284.712 117.977C285.759 118.841 287.322 119.268 288.616 119.041C289.547 118.878 290.324 118.323 290.843 117.461C291.859 115.773 291.714 113.44 291.7 111.498C291.685 109.501 291.794 107.117 291.129 105.23C290.32 102.935 288.375 101.042 286.753 99.4269C281.177 93.8766 272.7 87.9174 271.247 79.2842C270.586 75.3592 270.583 65.0835 271.345 61.2108C271.653 59.6453 272.226 58.1087 273.075 56.8014C274.694 54.3094 276.949 53.3875 279.583 52.9263Z" fill="black"/>
<path d="M138.154 44.9545C139.59 44.8426 141.05 44.8883 142.49 44.8799C142.047 46.6575 141.908 48.2831 141.981 50.124C142.134 53.9602 142.72 57.82 143.191 61.6228C143.916 67.6623 144.694 73.6935 145.527 79.7164C146.373 86.3038 147.273 92.8826 148.225 99.4528C149.024 104.922 149.579 110.771 151.588 115.886C146.976 115.8 142.357 116.045 137.745 116.125C138.243 111.874 137.569 108.045 136.959 103.866C135.475 103.902 128.063 103.894 127.318 104.562L127.279 105.261C126.877 109.129 126.408 112.647 127.436 116.445C122.699 116.525 117.914 116.899 113.187 117.245C115.097 111.538 115.67 105.406 116.464 99.4166L119.048 79.7979L121.345 62.226C121.82 58.6323 122.418 54.9979 122.685 51.3791C122.829 49.4248 122.721 47.5924 122.447 45.6579C127.663 45.5924 132.943 45.2523 138.154 44.9545Z" fill="black"/>
<path d="M132.413 60.9659L132.603 61.0935C132.912 61.5528 135.716 89.6444 136.227 93.002L132.237 93.0427C130.961 93.0423 129.699 93.1288 128.426 93.2297C129.993 82.5302 130.979 71.6951 132.413 60.9659Z" fill="white"/>
<path d="M33.5213 53.3285C34.3762 53.2135 35.3075 53.2253 36.1697 53.2249C38.8999 53.2238 41.6621 53.8948 43.6301 56.1289C46.9733 59.9252 46.595 65.9469 46.595 70.8193L46.5811 79.2229C42.5645 79.8756 38.4466 80.7503 34.4915 81.7621C34.7108 78.7496 35.2339 69.2915 33.5946 66.9255C32.9879 66.0497 32.0462 65.715 31.0827 65.6083C29.7564 65.4613 28.3788 65.7374 27.3462 66.7119C26.0526 67.9324 25.6066 69.8638 25.4684 71.6559C25.2046 75.0698 25.4375 78.649 25.4441 82.0805C25.4224 88.5714 25.4337 95.0624 25.4781 101.553C25.5142 106.006 25.0759 111.027 25.4365 115.384C25.532 116.536 25.7742 117.72 26.5069 118.598C27.1609 119.381 28.0574 119.711 29.0067 119.746C30.4364 119.798 32.0719 119.356 33.1107 118.221C35.4613 115.652 34.6314 107.215 34.5987 103.629C37.5268 103.178 40.432 102.473 43.3319 101.839L46.7116 101.091C46.3766 108.353 47.9372 118.447 43.7832 124.422C39.8808 130.036 31.2274 131.703 25.137 132.557C22.1759 132.972 18.7709 132.976 16.3343 130.793C14.2978 128.968 13.4387 126.108 13.1641 123.332C12.791 119.561 12.9537 115.637 12.953 111.845L12.9336 94.064L12.9165 78.5649C12.9143 75.2309 12.7278 71.7443 13.1739 68.443C13.5513 65.6514 14.4371 62.9556 16.0713 60.7474C20.1267 55.2679 27.4788 53.9907 33.5213 53.3285Z" fill="black"/>
<path d="M197.466 45.8144C199.772 46.1358 202.171 46.0349 204.496 46.1933C211.278 46.6552 218.221 46.9911 224.956 47.9518C224.495 52.2618 224.82 56.9122 224.847 61.2568C220.59 59.1669 214.682 59.3642 210.084 59.1182C210.177 64.6235 210.244 70.1962 210.093 75.6985C214.128 75.7213 218.026 76.5816 222.072 76.018C222.044 80.3721 221.893 84.8051 222.224 89.147C218.248 88.3641 214.139 88.2932 210.119 87.8976C210.053 93.3046 210.147 98.7269 210.153 104.136C210.126 104.549 210.13 104.855 210.22 105.258C211.711 105.867 219.982 106.18 221.916 106.123C223.015 106.09 224.074 105.914 225.155 105.707L225.166 119.499C221.353 118.802 217.398 118.626 213.543 118.291C208.296 117.835 203.023 117.283 197.761 117.15C198.465 112.986 198.26 108.601 198.257 104.381L198.244 88.4261L198.227 65.031C198.225 60.403 198.342 55.7328 198.123 51.1118C198.037 49.2938 197.84 47.5882 197.466 45.8144Z" fill="black"/>
<path d="M108.249 46.3201C108.481 46.287 108.714 46.2493 108.947 46.2318C109.324 46.204 109.72 46.0993 110.014 46.3704C109.934 51.0048 109.953 55.6387 110.07 60.2721C105.616 58.6731 100.289 59.4606 95.6975 60.1594L95.7069 76.7358C99.4184 76.0218 103.243 76.0283 106.967 75.3196C106.708 79.6094 106.733 84.0321 107.019 88.3192C103.219 88.1673 99.4892 88.6246 95.7038 88.8794L95.6965 106.534C100.554 105.801 105.3 105.825 110.129 104.652C110.078 108.638 110.096 112.623 110.184 116.608L110.204 117.306C110.095 117.4 110.008 117.543 109.875 117.589C109.331 117.779 103.899 117.999 102.652 118.112C96.1482 118.731 89.6516 119.435 83.1626 120.222C83.6489 118.058 83.9016 115.878 84.005 113.652C84.1827 109.835 84.0685 105.957 84.065 102.133L84.0584 82.9076L84.0411 64.7702C84.0289 59.8262 84.4555 53.434 83.2782 48.7139C86.1629 48.6267 89.1069 48.1766 91.984 47.875C97.4125 47.3057 102.807 46.7402 108.249 46.3201Z" fill="black"/>
<path d="M64.7512 50.656C65.1851 50.5695 64.9785 50.5391 65.3715 50.7401C65.5453 51.8498 65.1038 53.3353 65.0219 54.4941C64.8792 56.4246 64.8079 58.3582 64.8081 60.2949L64.8168 109.955C69.4272 108.978 74.1144 108.442 78.7085 107.371L78.7002 120.599C74.6354 121.069 70.5876 121.822 66.5481 122.505C61.694 123.328 56.8048 124.158 51.9917 125.233C52.3312 124.266 52.6017 123.277 52.8032 122.265C53.005 121.254 53.1355 120.231 53.1947 119.197C53.4498 115.337 53.3617 111.442 53.3634 107.575L53.3669 90.2015L53.3631 69.6224C53.3617 64.0661 53.8122 58.0867 52.5651 52.6735C56.6431 52.2146 60.7034 51.3689 64.7512 50.656Z" fill="black"/>
<path d="M154.038 14.0998C154.192 14.0835 154.346 14.0715 154.501 14.0636C154.655 14.0555 154.81 14.0517 154.964 14.0522C155.119 14.0524 155.273 14.0569 155.428 14.0655C155.582 14.0744 155.736 14.0872 155.89 14.104C156.044 14.121 156.197 14.142 156.35 14.1672C156.503 14.1926 156.655 14.2219 156.807 14.2551C156.958 14.2884 157.109 14.3258 157.259 14.3675C157.409 14.4089 157.558 14.4543 157.706 14.5038C157.854 14.5533 158 14.6067 158.146 14.6641C158.291 14.7215 158.435 14.7827 158.578 14.8477C158.721 14.9129 158.862 14.9818 159.001 15.0545C159.141 15.1271 159.279 15.2035 159.416 15.2837C159.552 15.3637 159.686 15.4473 159.819 15.5346C159.951 15.622 160.082 15.7129 160.21 15.8073C160.338 15.9017 160.465 15.9995 160.589 16.1005C160.713 16.2016 160.835 16.306 160.954 16.4139C161.074 16.5216 161.191 16.6324 161.305 16.7464C161.42 16.8604 161.532 16.9773 161.641 17.0971C161.75 17.2172 161.857 17.3401 161.96 17.4657C162.064 17.5914 162.165 17.7198 162.263 17.8511C162.361 17.9821 162.456 18.1157 162.548 18.2521C162.641 18.3881 162.73 18.5268 162.815 18.6679C162.901 18.8088 162.984 18.952 163.063 19.0975C163.143 19.2429 163.219 19.3904 163.292 19.54C163.365 19.6897 163.434 19.8412 163.501 19.9943C163.567 20.1476 163.629 20.3026 163.689 20.4592C163.748 20.6159 163.804 20.774 163.856 20.9337C163.908 21.0934 163.956 21.2544 164.001 21.4166C164.046 21.5791 164.088 21.7425 164.125 21.9071C164.163 22.0716 164.197 22.2369 164.227 22.4032C164.257 22.5695 164.284 22.7364 164.307 22.904C164.33 23.0718 164.349 23.2401 164.364 23.409C164.379 23.5778 164.391 23.7469 164.399 23.9162C164.406 24.0855 164.41 24.255 164.411 24.4246C164.411 24.5941 164.407 24.7637 164.4 24.9333C164.392 25.1026 164.381 25.2717 164.367 25.4405C164.351 25.6094 164.333 25.7777 164.31 25.9455C164.288 26.1133 164.262 26.2803 164.232 26.4466C164.202 26.6132 164.168 26.7787 164.131 26.9432C164.094 27.1077 164.053 27.2712 164.008 27.4337C163.964 27.5962 163.915 27.7572 163.864 27.9169C163.812 28.0769 163.757 28.2352 163.698 28.3918C163.639 28.5487 163.577 28.7039 163.511 28.8575C163.445 29.0108 163.376 29.1624 163.303 29.3122C163.231 29.462 163.155 29.6097 163.076 29.7555C162.997 29.9012 162.914 30.0446 162.829 30.1858C162.743 30.3272 162.655 30.466 162.563 30.6024C162.471 30.7389 162.376 30.873 162.278 31.0045C162.181 31.1357 162.08 31.2643 161.977 31.3903C161.873 31.5164 161.767 31.6397 161.658 31.76C161.549 31.8801 161.438 31.9974 161.323 32.1119C161.209 32.2261 161.092 32.3372 160.973 32.4451C160.854 32.5532 160.732 32.658 160.609 32.7592C160.485 32.8608 160.359 32.9589 160.231 33.0536C160.102 33.1483 159.972 33.2396 159.84 33.3274C159.707 33.415 159.573 33.499 159.437 33.5795C159.301 33.66 159.163 33.7368 159.024 33.8099C158.884 33.883 158.743 33.9523 158.601 34.0178C158.458 34.0833 158.314 34.145 158.168 34.2029C158.023 34.2605 157.877 34.3143 157.729 34.3643C157.581 34.4141 157.432 34.4599 157.283 34.5018C157.133 34.5437 156.982 34.5817 156.831 34.6157C156.679 34.6494 156.527 34.6791 156.374 34.7048C156.222 34.7304 156.068 34.7519 155.914 34.7691C155.76 34.7867 155.605 34.8 155.45 34.8091C155.295 34.818 155.14 34.8228 154.985 34.8236C154.83 34.8244 154.674 34.8209 154.519 34.8133C154.364 34.8057 154.209 34.7939 154.055 34.7779C153.9 34.7619 153.746 34.7417 153.592 34.7174C153.439 34.693 153.286 34.6645 153.133 34.632C152.981 34.5993 152.829 34.5626 152.678 34.522C152.528 34.4811 152.378 34.4363 152.229 34.3876C152.081 34.3386 151.933 34.2858 151.787 34.2292C151.64 34.1723 151.495 34.1115 151.352 34.0468C151.208 33.982 151.066 33.9136 150.925 33.8415C150.785 33.7691 150.646 33.693 150.509 33.613C150.372 33.5333 150.236 33.4499 150.103 33.3628C149.97 33.2757 149.838 33.1851 149.709 33.0909C149.579 32.9965 149.452 32.8988 149.327 32.7977C149.202 32.6967 149.08 32.5923 148.959 32.4847C148.839 32.377 148.721 32.2661 148.606 32.1519C148.491 32.0379 148.378 31.9208 148.268 31.8008C148.158 31.6807 148.05 31.5577 147.946 31.4318C147.841 31.3058 147.74 31.1771 147.641 31.0456C147.542 30.9141 147.447 30.7801 147.354 30.6435C147.261 30.5069 147.171 30.3679 147.085 30.2265C146.998 30.0851 146.915 29.9414 146.835 29.7954C146.755 29.6495 146.678 29.5015 146.604 29.3514C146.531 29.2014 146.461 29.0494 146.394 28.8956C146.328 28.7417 146.265 28.5863 146.205 28.4291C146.145 28.2717 146.089 28.1129 146.037 27.9527C145.984 27.7925 145.935 27.6309 145.89 27.468C145.844 27.305 145.803 27.1408 145.765 26.9756C145.727 26.8106 145.693 26.6445 145.662 26.4775C145.632 26.3104 145.605 26.1426 145.582 25.9741C145.559 25.8057 145.54 25.6368 145.525 25.4672C145.509 25.2976 145.498 25.1278 145.49 24.9577C145.482 24.7876 145.478 24.6174 145.478 24.447C145.478 24.2767 145.482 24.1065 145.489 23.9364C145.497 23.7663 145.508 23.5964 145.523 23.4268C145.538 23.2573 145.557 23.0882 145.58 22.9196C145.602 22.7513 145.629 22.5836 145.659 22.4166C145.689 22.2493 145.723 22.083 145.761 21.9177C145.799 21.7524 145.84 21.5883 145.885 21.4253C145.93 21.2623 145.979 21.1006 146.031 20.9402C146.083 20.78 146.139 20.6212 146.199 20.4638C146.258 20.3064 146.321 20.1507 146.387 19.9966C146.453 19.8427 146.523 19.6906 146.597 19.5403C146.67 19.3901 146.746 19.2419 146.826 19.0959C146.906 18.9497 146.989 18.8059 147.075 18.6645C147.162 18.5228 147.251 18.3836 147.344 18.2467C147.436 18.1099 147.532 17.9757 147.63 17.8442C147.729 17.7127 147.83 17.5839 147.935 17.4577C148.039 17.3315 148.146 17.2083 148.256 17.088C148.366 16.9676 148.479 16.8503 148.594 16.7361C148.709 16.6218 148.826 16.5108 148.947 16.4029C149.067 16.2947 149.189 16.19 149.314 16.0887C149.439 15.9874 149.566 15.8896 149.695 15.7951C149.824 15.7007 149.956 15.6098 150.089 15.5225C150.222 15.4351 150.357 15.3514 150.494 15.2711C150.631 15.1912 150.77 15.1149 150.91 15.0423C151.051 14.9697 151.193 14.9009 151.337 14.8359C151.48 14.7711 151.625 14.7102 151.771 14.6531C151.917 14.596 152.065 14.5428 152.214 14.4935C152.362 14.4445 152.512 14.3995 152.663 14.3583C152.813 14.3172 152.965 14.2803 153.117 14.2475C153.269 14.2145 153.422 14.1857 153.576 14.1611C153.73 14.1365 153.884 14.116 154.038 14.0998Z" fill="black"/>
<path d="M154.299 18.8107C155.201 18.7532 156.003 18.7665 156.837 19.1858C158.107 19.824 158.996 20.9718 159.45 22.4135C159.509 22.6006 159.559 22.7904 159.6 22.9828C159.641 23.1755 159.673 23.37 159.696 23.5662C159.719 23.7622 159.733 23.9591 159.738 24.1568C159.743 24.3546 159.738 24.5521 159.725 24.7494C159.711 24.9466 159.689 25.1426 159.657 25.3373C159.625 25.5321 159.584 25.7245 159.535 25.9146C159.485 26.1048 159.427 26.2916 159.36 26.4752C159.293 26.659 159.217 26.8385 159.134 27.0137C158.38 28.5845 157.167 29.466 155.658 29.9931C154.757 30.0399 153.914 29.9607 153.076 29.567C152.924 29.4959 152.776 29.4162 152.632 29.3278C152.488 29.2395 152.349 29.1433 152.214 29.0392C152.079 28.9348 151.95 28.823 151.826 28.7037C151.702 28.5843 151.584 28.4583 151.472 28.3255C151.36 28.1925 151.254 28.0535 151.155 27.9085C151.057 27.7636 150.965 27.6133 150.881 27.4577C150.797 27.302 150.72 27.142 150.651 26.9775C150.582 26.813 150.521 26.645 150.468 26.4737C149.979 24.9234 150.071 23.1142 150.766 21.655C151.564 19.9802 152.74 19.3507 154.299 18.8107Z" fill="white"/>
<path d="M226.93 18.1775C229.182 18.3356 231.46 18.5602 233.698 18.8759C235.94 19.1924 238.239 19.8889 239.651 21.9844C240.773 23.6505 241.031 25.8629 240.75 27.8732C240.46 29.952 239.39 31.1885 237.93 32.4044C238.995 34.8596 240.049 37.3209 241.091 39.7882L238.145 39.508C237.484 39.4996 236.787 39.3682 236.127 39.2978C235.419 37.4958 234.704 35.0674 233.491 33.62C233.007 33.043 232.423 32.9402 231.735 32.9212C231.058 33.7989 231.497 37.4638 231.535 38.6748L226.91 38.158L226.93 18.1775Z" fill="black"/>
<path d="M231.517 23.1375C232.688 23.2559 233.94 23.2902 235.015 23.8625C235.64 24.1954 236.073 24.6295 236.282 25.3781C236.539 26.2978 236.127 27.4189 235.75 28.2228C234.38 28.9985 232.916 28.6896 231.446 28.5152C231.443 26.7239 231.492 24.9288 231.517 23.1375Z" fill="white"/>
<path d="M189.418 15.1741C190.737 15.1745 192.011 15.1935 193.317 15.4045C195.701 19.3209 197.998 23.2976 200.208 27.3344C200.146 23.5335 200.153 19.7274 200.127 15.9258C201.621 16.0083 203.116 16.0767 204.61 16.1311L204.678 36.1462C203.282 36.1161 201.886 36.0114 200.492 35.9284L193.785 24.0434C194.13 27.7639 193.927 31.6607 193.925 35.4021C192.427 35.3427 190.921 35.3587 189.422 35.3427L189.418 15.1741Z" fill="black"/>
<path d="M71.8015 20.3846C72.2208 20.3001 72.4503 20.2262 72.8428 20.4383C73.1413 22.3918 72.9154 24.6591 72.9181 26.6588C72.9075 31.1175 72.9405 35.5758 73.0171 40.0338C71.4403 40.2341 69.869 40.4762 68.3032 40.76L68.2876 33.1804C66.5073 33.5837 64.7038 33.7665 62.8982 33.9809C62.9048 36.5037 62.8771 39.0319 63.0183 41.5509L59.4728 42.1819C59.1278 42.2356 58.8359 42.2387 58.4888 42.2063C58.0674 41.3792 58.2652 24.3575 58.2541 22.2742C59.7945 22.0906 61.3186 21.8484 62.8486 21.5834C62.9302 24.1523 62.8847 26.7345 62.8816 29.3057C64.6768 28.949 66.4812 28.6626 68.2949 28.4463L68.2692 20.9608C69.4423 20.7456 70.6245 20.5739 71.8015 20.3846Z" fill="black"/>
<path d="M168.923 14.3603L173.458 14.4186C173.445 17.6939 173.092 24.3073 173.536 27.2487C173.653 28.0232 173.917 28.8397 174.399 29.4341C174.848 29.9882 175.452 30.2818 176.127 30.2959C176.956 30.3134 177.893 30.0011 178.486 29.3427C178.906 28.8762 179.05 28.2826 179.141 27.6519C179.367 26.0845 179.224 24.3511 179.213 22.762L179.166 14.5781L183.867 14.8055L183.866 19.2639C183.89 23.1154 184.702 29.5472 182.178 32.5011C180.797 34.1176 178.755 34.9074 176.765 34.9501C174.637 34.9954 172.228 34.2764 170.708 32.5632C169.932 31.6889 169.507 30.6527 169.249 29.4775C168.504 26.0815 168.923 18.2936 168.923 14.3603Z" fill="black"/>
<path d="M133.907 14.4729C134.837 14.3648 135.915 14.5179 136.82 14.7635C139.108 15.3834 140.947 16.92 142.141 19.1306C140.973 20.0315 139.736 20.8472 138.533 21.6938C138.244 21.3514 137.953 21.0091 137.644 20.6873C136.739 19.7444 135.376 19.0525 134.11 19.1439C132.908 19.2307 131.823 19.9577 131.045 20.9402C130.027 22.2261 129.581 23.9276 129.684 25.6134C129.772 27.0414 130.288 28.5136 131.334 29.4203C132.282 30.2409 133.598 30.5315 134.781 30.3639C136.225 30.1595 137.242 29.2638 138.101 28.0353L139.788 28.8723C140.634 29.3024 141.474 29.747 142.308 30.2063C140.775 32.6016 138.834 34.3811 136.146 34.9679C133.669 35.509 130.85 34.9987 128.754 33.4371C128.632 33.3439 128.511 33.2474 128.393 33.1476C128.275 33.0479 128.159 32.9448 128.045 32.8384C127.931 32.7323 127.82 32.6231 127.711 32.5109C127.603 32.3987 127.497 32.2836 127.394 32.1655C127.29 32.0472 127.189 31.9264 127.092 31.803C126.994 31.6794 126.899 31.5531 126.807 31.4241C126.714 31.2954 126.625 31.1641 126.539 31.0304C126.453 30.8966 126.37 30.7606 126.29 30.6225C126.21 30.4842 126.133 30.3438 126.06 30.2013C125.986 30.0589 125.916 29.9145 125.849 29.768C125.782 29.6218 125.718 29.4738 125.658 29.324C125.598 29.1742 125.541 29.0228 125.488 28.8697C125.434 28.7168 125.385 28.5625 125.338 28.4066C125.292 28.251 125.249 28.0942 125.21 27.9363C125.171 27.7782 125.136 27.6191 125.104 27.4592C125.072 27.2992 125.044 27.1385 125.019 26.9771C124.991 26.7956 124.966 26.6133 124.946 26.4302C124.926 26.2474 124.911 26.0641 124.899 25.8803C124.887 25.6965 124.88 25.5125 124.877 25.3282C124.874 25.1441 124.875 24.9601 124.881 24.776C124.886 24.5917 124.896 24.4078 124.91 24.2242C124.924 24.0407 124.943 23.8576 124.965 23.6751C124.988 23.4926 125.014 23.3108 125.045 23.1298C125.076 22.9488 125.112 22.7687 125.151 22.5894C125.191 22.4104 125.234 22.2326 125.281 22.0559C125.329 21.8792 125.381 21.7039 125.437 21.53C125.492 21.3564 125.552 21.1843 125.616 21.0136C125.68 20.8433 125.747 20.6749 125.819 20.5083C125.89 20.3415 125.966 20.1769 126.045 20.0144C126.124 19.8519 126.207 19.6919 126.294 19.5342C126.38 19.3763 126.47 19.2209 126.564 19.0681C126.658 18.9153 126.755 18.7652 126.856 18.618C128.641 16.035 131.082 14.9147 133.907 14.4729Z" fill="black"/>
<path d="M195.6 160.394L199.346 160.437C199.193 165.904 199.433 171.385 199.288 176.853L195.852 176.947C193.869 173.966 191.919 170.558 190.42 167.262C190.49 170.456 190.452 173.662 190.46 176.858L186.653 176.873L186.646 160.417L190.471 160.402C192.162 163.545 194.079 166.547 195.818 169.662C195.505 166.619 195.621 163.456 195.6 160.394Z" fill="black"/>
<path d="M243.321 20.0593C245.014 20.3213 246.725 20.4725 248.421 20.7181C249.711 23.3655 250.726 26.1873 251.796 28.9485C252.871 26.5681 254.02 24.2474 255.203 21.9299C256.774 22.1913 258.347 22.44 259.921 22.6758C258.849 25.319 257.236 27.8342 255.842 30.2939C253.341 34.6449 253.926 37.0513 253.988 41.8985C252.484 41.6937 250.979 41.4992 249.472 41.3151C249.435 39.0448 249.698 36.613 249.359 34.3731C248.84 30.9458 244.934 23.5216 243.321 20.0593Z" fill="black"/>
<path d="M121.903 160.406C123.406 160.457 124.919 160.413 126.423 160.403C128.039 165.931 129.914 171.368 131.564 176.885C130.227 176.875 128.887 176.933 127.55 176.968C127.283 175.885 127.036 174.8 126.66 173.754L121.506 173.768L120.781 176.837L116.833 176.951C118.376 171.392 120.286 165.944 121.903 160.406Z" fill="black"/>
<path d="M124.176 165.117C124.607 166.15 124.983 167.334 125.24 168.435C125.374 169.008 125.479 169.566 125.214 170.083L124.422 170.171C123.92 170.166 123.418 170.151 122.916 170.123C122.769 169.424 123.871 165.973 124.176 165.117Z" fill="white"/>
<path d="M208.688 16.4856C213.403 16.799 218.115 17.3192 222.82 17.7841L222.76 22.4722C221.181 22.3698 219.609 22.2704 218.039 22.0529L218.074 31.6401L218.084 37.2943C216.556 37.1797 215.039 37.0548 213.519 36.8461L213.547 21.6935C211.923 21.4777 210.294 21.3251 208.66 21.2357L208.688 16.4856Z" fill="black"/>
<path d="M142.531 160.413L146.365 160.445L146.368 164.16C146.392 167.265 147.03 172.684 144.925 175.147C143.783 176.482 142.081 177.116 140.443 177.177C138.68 177.243 136.743 176.66 135.485 175.243C133.346 172.832 134.067 163.76 134.062 160.429L137.735 160.432C137.775 163.114 137.072 170.801 138.524 172.66C138.897 173.136 139.402 173.404 139.973 173.44C140.616 173.48 141.207 173.272 141.659 172.756C143.223 170.969 142.562 163.023 142.531 160.413Z" fill="black"/>
<path d="M108.841 16.0229C109.226 16.7579 108.978 29.3492 108.976 31.6017C111.131 31.3652 113.299 31.2182 115.459 31.0392C115.415 32.7171 115.436 34.3991 115.436 36.0777C114.224 36.0919 113.013 36.1305 111.803 36.1934L104.39 36.7269L104.353 16.3618C105.854 16.3397 107.347 16.1703 108.841 16.0229Z" fill="black"/>
<path d="M153.92 160.298C156.007 160.116 157.81 160.378 159.635 161.575C160.258 161.984 160.535 162.268 160.713 163.047C160.327 164.248 158.99 164.707 158.011 165.277C157.727 164.984 157.44 164.679 157.127 164.423C156.556 163.955 155.861 163.807 155.167 163.944C154.688 164.038 154.221 164.242 153.955 164.714C153.802 164.984 153.897 165.142 153.943 165.434C154.86 166.656 157.3 166.749 158.616 167.387C159.753 167.94 160.766 169.043 161.16 170.351C161.528 171.576 161.359 172.963 160.79 174.083C159.928 175.778 158.64 176.511 157.001 176.998C155.542 177.112 154.108 177.213 152.707 176.625C151.186 175.986 150.384 174.808 149.769 173.208C150.741 172.614 151.738 172.069 152.729 171.514C152.951 171.799 153.174 172.088 153.421 172.348C154.009 172.968 154.777 173.366 155.602 173.334C156.209 173.31 156.582 173.106 157.013 172.636C157.154 172.169 157.271 171.927 157.017 171.455C156.338 170.193 154.157 170.189 153.02 169.656C151.812 169.09 150.769 168.115 150.328 166.725C149.953 165.543 150.022 164.154 150.539 163.036C151.245 161.511 152.499 160.802 153.92 160.298Z" fill="black"/>
<path d="M92.6321 17.7319L92.8959 17.7326C93.2864 18.3271 93.0923 31.2714 93.0979 32.95C95.2107 32.6633 97.3519 32.5662 99.4719 32.3365C99.4584 33.9607 99.4851 35.5871 99.4948 37.2116C98.0391 37.2352 96.5942 37.3605 95.143 37.4843C92.9493 37.7124 90.7554 37.9291 88.5704 38.247C88.6123 31.5964 88.576 24.9464 88.4614 18.297C89.8449 18.0548 91.2399 17.901 92.6321 17.7319Z" fill="black"/>
<path d="M163.579 160.422C167.424 160.507 171.277 160.443 175.123 160.437C175.088 161.705 175.12 162.975 175.136 164.243C173.88 164.227 172.625 164.194 171.37 164.143L171.368 172.157L171.377 176.846C170.104 176.814 168.825 176.864 167.551 176.886L167.561 164.176L163.585 164.253L163.579 160.422Z" fill="black"/>
<path d="M82.9024 18.8769L83.0947 18.9999C83.5258 20.3335 83.0645 35.2923 83.339 38.7134C81.9513 38.8661 80.5651 39.0683 79.1798 39.2473C78.8848 39.2073 79.0476 39.2648 78.7289 38.9792C78.5859 36.7386 78.6994 34.421 78.7015 32.1731C78.7091 27.9236 78.6942 23.674 78.6567 19.4245L82.9024 18.8769Z" fill="black"/>
<path d="M79.2552 160.713C79.5912 160.678 80.0251 160.596 80.3548 160.679C81.5245 160.975 84.2232 166.251 84.7983 167.537C79.9168 167.258 75.1901 166.285 70.3898 165.35C67.7508 164.796 65.1181 163.793 62.4375 163.559C67.1285 162.241 74.3879 161.291 79.2552 160.713Z" fill="#C41728"/>
<path d="M236.971 160.589C239.136 160.953 241.355 161.071 243.533 161.356C247.257 161.845 250.941 162.577 254.584 163.553C252.4 163.813 250.291 164.465 248.165 165.048C243.71 166.13 237.367 167.548 232.83 167.508C234.382 165.306 235.561 162.897 236.971 160.589Z" fill="#C41728"/>
<path d="M178.453 160.412L182.332 160.415C182.237 165.882 182.319 171.368 182.319 176.837L178.439 176.866C178.537 171.386 178.462 165.893 178.453 160.412Z" fill="black"/>
</svg>
